<svg xmlns="http://www.w3.org/2000/svg" viewBox="0 0 256 256" role="img" aria-label="Nuvia">
  <!-- Nuvia mark: lowercase "n" (Segoe Script, outlined) in lime on a dark rounded tile. -->
  <rect x="10.24" y="10.24" width="235.52" height="235.52" rx="51.20" ry="51.20" fill="#1F2419"/>
  <g fill="#A3E635" transform="translate(33.80 177.13) scale(0.09106 -0.09106)">
    <path d="M1888 715Q1888 696 1881.5 676.5Q1875 657 1865.5 637.5Q1856 618 1844.0 599.5Q1832 581 1821 564Q1792 519 1753.0 472.5Q1714 426 1669.5 382.0Q1625 338 1578.0 299.0Q1531 260 1486 230Q1450 206 1417.5 185.0Q1385 164 1352.0 149.0Q1319 134 1283.0 125.0Q1247 116 1204 116Q1121 116 1069 158Q1043 179 1023.5 212.5Q1004 246 989.5 287.0Q975 328 964.5 374.0Q954 420 947 465Q938 521 930.0 565.5Q922 610 911.5 640.5Q901 671 886.0 687.5Q871 704 847 704Q828 704 811.0 700.0Q794 696 775.5 684.0Q757 672 735.0 650.0Q713 628 683.5 592.0Q654 556 616.0 504.0Q578 452 527 380Q502 345 468.0 303.0Q434 261 398.5 223.0Q363 185 329.0 156.0Q295 127 269 119Q181 138 181 338Q181 391 193 499Q199 548 207.0 601.5Q215 655 227.0 708.5Q239 762 254.5 812.5Q270 863 291 906Q301 926 312.0 937.5Q323 949 334.5 954.5Q346 960 358.5 961.5Q371 963 384 963Q400 963 412.5 941.0Q425 919 425 880Q425 856 421.0 835.0Q417 814 410.0 792.0Q403 770 395.0 744.5Q387 719 379 686Q373 659 365.5 626.0Q358 593 351.5 559.0Q345 525 340.5 492.5Q336 460 336 434Q336 416 342 397Q370 400 434 481Q467 522 506.5 571.0Q546 620 592 679Q626 723 659.5 761.0Q693 799 729.0 827.5Q765 856 805.5 872.5Q846 889 895 889Q947 889 981.5 866.5Q1016 844 1037.0 804.5Q1058 765 1069.5 710.0Q1081 655 1088 589Q1094 533 1099.5 478.0Q1105 423 1121.0 379.5Q1137 336 1167.0 309.0Q1197 282 1253 282Q1296 282 1343.0 302.0Q1390 322 1442.0 357.5Q1494 393 1549.5 441.0Q1605 489 1664 546Q1687 568 1714.5 601.5Q1742 635 1768.5 666.0Q1795 697 1818.0 719.0Q1841 741 1855 741Q1861 741 1874.5 735.0Q1888 729 1888 715Z"/>
  </g>
</svg>
